<svg version="1.2" xmlns="http://www.w3.org/2000/svg" viewBox="0 0 54 53" width="54" height="53"><style>.a{fill:#f56131}</style><path fill-rule="evenodd" class="a" d="m26.7 52.4c-14.5 0-26.3-11.8-26.3-26.2 0-14.5 11.8-26.2 26.3-26.2 14.6 0 26.4 11.7 26.4 26.2 0 14.4-11.8 26.2-26.4 26.2zm0-47c-11.5 0-20.9 9.3-20.9 20.8 0 11.4 9.4 20.8 20.9 20.8 11.6 0 21-9.4 21-20.8 0-11.5-9.4-20.8-21-20.8zm0 36.8c-8.9 0-16.1-7.2-16.1-16 0-8.9 7.2-16.1 16.1-16.1 9 0 16.2 7.2 16.2 16.1 0 8.8-7.2 16-16.2 16zm0-27c-6 0-11 4.9-11 11 0 6 5 10.9 11 10.9 6.1 0 11.1-4.9 11.1-10.9 0-6.1-5-11-11.1-11zm0 17.2c-3.4 0-6.2-2.8-6.2-6.2 0-3.5 2.8-6.3 6.2-6.3 3.5 0 6.3 2.8 6.3 6.3 0 3.4-2.8 6.2-6.3 6.2z"/></svg>